<?xml version="1.0" encoding="utf-8"?>
<!-- Generator: Adobe Illustrator 16.0.0, SVG Export Plug-In . SVG Version: 6.00 Build 0)  -->
<!DOCTYPE svg PUBLIC "-//W3C//DTD SVG 1.1//EN" "http://www.w3.org/Graphics/SVG/1.1/DTD/svg11.dtd">
<svg version="1.1" id="Layer_1" xmlns="http://www.w3.org/2000/svg" xmlns:xlink="http://www.w3.org/1999/xlink" x="0px" y="0px"
	 width="56px" height="68px" viewBox="0 0 56 68" enable-background="new 0 0 56 68" xml:space="preserve">
<g id="_x23_282c2fff">
</g>
<g id="_x23_929495ff">
	<path fill="#929394" d="M14.054,15.045c6.48,0.29,12.98-0.14,19.441,0.399c5.328,0.521,8.277,5.791,9.299,10.531
		c-3.76-0.611-7.021-2.541-10.299-4.311c-4.4-0.77-8.9-0.15-13.342-0.28c-0.119,1.04-0.229,2.07-0.33,3.11
		c-1.6,0.17-3.189,0.34-4.779,0.5C14.063,21.675,14.054,18.364,14.054,15.045z"/>
	<path fill="#929394" d="M37.034,24.965c1.84,1.11,3.699,2.2,5.578,3.261c-1.117,1.869-2.209,3.75-3.26,5.649
		c1.041,1.79,2.23,3.569,2.602,5.659c-0.9,1.851-3.141,2.351-4.779,3.361c-1.541-4.65-6.09-6.631-10.352-8.091
		c-0.01,1.95-0.01,3.9-0.01,5.851c-4.59-2.95-9.18-5.92-13.609-9.101c2.971,0.729,5.949,1.46,8.92,2.261
		c-0.012-1.721-0.012-3.44-0.012-5.15c3.432,0.92,6.893,2.21,10.49,2.09C35.134,29.944,35.765,26.985,37.034,24.965z"/>
	<path fill="#929394" d="M28.524,46.675c5.299,0.439,9.049-4.3,14.271-4.66c-1.031,4.711-3.961,9.93-9.262,10.48
		c-6.461,0.59-12.979,0.15-19.461,0.46c0-3.351-0.01-6.69-0.01-10.03c1.58,0.18,3.17,0.38,4.771,0.59
		c0.068,0.76,0.221,2.301,0.301,3.07C22.265,46.595,25.384,46.694,28.524,46.675z"/>
</g>
</svg>
